#!OML:ASF F:\VICON\USERDATA\INSTALL\rory3\rory3.ASF
:FULLY-SPECIFIED
:DEGREES
136
root 1.22043 17.7941 -16.6318 7.18261 -1.4851 -0.0430776
lowerback 6.62519 -0.545489 -0.982732
upperback 0.855106 -0.72721 2.3014
thorax -2.79005 -0.341805 2.99447
lowerneck -18.8391 -3.68076 -8.98191
upperneck 12.7247 -3.56426 5.61386
head 7.24808 -1.63507 2.88494
rclavicle -1.10325e-014 3.89618e-014
rhumerus -30.7462 -6.58813 -81.0333
rradius 36.3582
rwrist 6.15765
rhand -12.6225 14.0213
rfingers 7.12502
rthumb 13.4571 -15.524
lclavicle -1.10325e-014 3.89618e-014
lhumerus -27.7156 5.34908 86.9993
lradius 30.0368
lwrist -6.59772
lhand -16.4779 26.4145
lfingers 7.12502
lthumb 9.73908 56.1693
rfemur -11.2037 5.56226 20.265
rtibia 21.8584
rfoot -11.2198 -10.7195
rtoes -0.00785046
lfemur -11.1422 -2.22871 -20.865
ltibia 21.5268
lfoot -13.3258 4.75591
ltoes 0.793105
137
root 1.22218 17.7903 -16.6341 7.18727 -1.56066 -0.116965
lowerback 6.79657 -0.505766 -0.903511
upperback 0.832176 -0.668429 2.28051
thorax -2.91417 -0.311871 2.92587
lowerneck -18.9128 -3.71732 -8.89885
upperneck 12.8442 -3.63094 5.60259
head 7.30294 -1.66376 2.85983
rclavicle -4.57205e-015 2.38542e-015
rhumerus -30.875 -6.39625 -81.1949
rradius 36.2309
rwrist 4.92206
rhand -13.4671 15.6073
rfingers 7.12502
rthumb 12.6429 -13.9901
lclavicle -4.57205e-015 2.38542e-015
lhumerus -27.6716 5.3888 86.9075
lradius 30.168
lwrist -7.155
lhand -15.9468 27.1281
lfingers 7.12502
lthumb 10.2514 56.8583
rfemur -11.2528 5.61981 20.3277
rtibia 21.8899
rfoot -11.1771 -10.7186
rtoes -0.0178969
lfemur -11.1854 -2.22088 -20.7937
ltibia 21.5614
lfoot -13.3361 4.8363
ltoes 0.90659
138
root 1.22576 17.7886 -16.634 7.18064 -1.51492 -0.121132
lowerback 6.7924 -0.501791 -0.859469
upperback 0.916771 -0.661541 2.26542
thorax -2.8255 -0.310679 2.88366
lowerneck -18.9923 -3.74107 -8.86915
upperneck 12.8248 -3.66229 5.59739
head 7.31154 -1.67635 2.84878
rclavicle 1.46107e-014 1.59028e-014
rhumerus -30.7715 -6.53629 -81.1396
rradius 36.6038
rwrist 6.10141
rhand -12.9146 14.5171
rfingers 7.12502
rthumb 13.1755 -15.0466
lclavicle 1.46107e-014 1.59028e-014
lhumerus -27.5859 5.17911 87.0015
lradius 30.322
lwrist -6.77599
lhand -16.4631 26.8799
lfingers 7.12502
lthumb 9.7534 56.6341
rfemur -11.2657 5.56946 20.3201
rtibia 21.9558
rfoot -11.2455 -10.7356
rtoes -0.225036
lfemur -11.2074 -2.2596 -20.7895
ltibia 21.5948
lfoot -13.3499 4.81756
ltoes 1.20747
139
root 1.22661 17.788 -16.637 7.19279 -1.40677 -0.217013
lowerback 6.81787 -0.549473 -0.777302
upperback 0.965476 -0.717906 2.3194
thorax -2.78659 -0.340192 2.89819
lowerneck -19.0875 -3.69027 -8.91936
upperneck 12.8479 -3.5822 5.65724
head 7.33108 -1.63379 2.88628
rclavicle -1.65985e-014 -3.18055e-015
rhumerus -30.6837 -6.23538 -81.26
rradius 36.4857
rwrist 5.03166
rhand -13.7695 16.0215
rfingers 7.12502
rthumb 12.3514 -13.5936
lclavicle -1.65985e-014 -3.18055e-015
lhumerus -27.5597 5.25695 86.9987
lradius 30.4219
lwrist -6.97598
lhand -16.2485 26.9201
lfingers 7.12502
lthumb 9.96041 56.6645
rfemur -11.3283 5.52435 20.4422
rtibia 22.0649
rfoot -11.2333 -10.7658
rtoes -0.735993
lfemur -11.2352 -2.35958 -20.6493
ltibia 21.6346
lfoot -13.4215 4.72653
ltoes 1.30631
140
root 1.22826 17.7862 -16.6391 7.23145 -1.4154 -0.208462
lowerback 6.92813 -0.533027 -0.805595
upperback 0.935481 -0.696779 2.33223
thorax -2.87987 -0.328073 2.92777
lowerneck -19.2089 -3.66406 -8.92282
upperneck 13.0024 -3.53923 5.65769
head 7.39907 -1.61293 2.89251
rclavicle 9.93923e-016 -5.56597e-015
rhumerus -30.698 -6.26472 -81.1977
rradius 36.6806
rwrist 5.68389
rhand -13.2846 15.1421
rfingers 7.12502
rthumb 12.8189 -14.4443
lclavicle 9.93923e-016 -5.56597e-015
lhumerus -27.5637 5.29662 86.9928
lradius 30.4619
lwrist -7.2545
lhand -15.8442 27.2114
lfingers 7.12502
lthumb 10.3504 56.9366
rfemur -11.4681 5.51852 20.4114
rtibia 22.2055
rfoot -11.31 -10.6666
rtoes -0.365586
lfemur -11.2965 -2.3655 -20.6559
ltibia 21.6967
lfoot -13.4961 4.714
ltoes 0.657787
141
root 1.23149 17.7831 -16.6381 7.36044 -1.48749 -0.221241
lowerback 6.97017 -0.476618 -0.807949
upperback 0.839414 -0.620049 2.33827
thorax -3.00693 -0.287637 2.93009
lowerneck -19.2256 -3.65773 -8.93659
upperneck 13.123 -3.53406 5.6856
head 7.44208 -1.60932 2.90544
rclavicle 1.98785e-016 -2.38542e-014
rhumerus -30.8851 -5.98658 -81.2899
rradius 36.4372
rwrist 3.84506
rhand -4.53034 8.12758
rfingers 7.12502
rthumb 21.2446 -20.7282
lclavicle 1.98785e-016 -2.38542e-014
lhumerus -27.6966 5.32535 86.9926
lradius 30.7601
lwrist -7.46171
lhand -14.7249 28.4999
lfingers 7.12502
lthumb 11.4301 58.1683
rfemur -11.7125 5.56615 20.3659
rtibia 22.3524
rfoot -11.4625 -10.5614
rtoes 0.758196
lfemur -11.5218 -2.29485 -20.6625
ltibia 21.8633
lfoot -13.61 4.73674
ltoes 0.602089
142
root 1.23352 17.7766 -16.6418 7.41467 -1.59638 -0.256506
lowerback 7.05174 -0.410884 -0.79544
upperback 0.812599 -0.530891 2.33694
thorax -3.08544 -0.242363 2.91477
lowerneck -19.0887 -3.6386 -8.94793
upperneck 13.0137 -3.52758 5.76018
head 7.38424 -1.60087 2.93321
rclavicle 1.25234e-014 -7.15625e-015
rhumerus -31.0853 -5.84524 -81.3635
rradius 36.7192
rwrist 3.40293
rhand -7.19246 10.4935
rfingers 7.12502
rthumb 18.6857 -18.629
lclavicle 1.25234e-014 -7.15625e-015
lhumerus -27.7105 5.20169 87.0292
lradius 30.8017
lwrist -6.87039
lhand -15.3171 28.3583
lfingers 7.12502
lthumb 10.8589 58.0575
rfemur -11.9105 5.62925 20.3937
rtibia 22.5285
rfoot -11.4173 -10.6593
rtoes -0.0640713
lfemur -11.6998 -2.25883 -20.6271
ltibia 22.0848
lfoot -13.7964 4.82835
ltoes 0.864834
